<mxfile host="Electron" modified="2024-02-26T15:28:21.379Z" agent="Mozilla/5.0 (X11; Linux x86_64) AppleWebKit/537.36 (KHTML, like Gecko) draw.io/23.1.5 Chrome/120.0.6099.109 Electron/28.1.0 Safari/537.36" etag="p6GjnLSdXcKEL_NbQJ55" version="23.1.5" type="device">
  <diagram name="Page-1" id="Y92Y_TORvS9SPB8imlwd">
    <mxGraphModel dx="819" dy="1623" grid="1" gridSize="10" guides="1" tooltips="1" connect="1" arrows="1" fold="1" page="1" pageScale="1" pageWidth="850" pageHeight="1100" background="#ffffff" math="0" shadow="0">
      <root>
        <mxCell id="0" />
        <mxCell id="1" parent="0" />
        <mxCell id="bbUX7uOw3sF5FcF1nQRy-41" style="edgeStyle=orthogonalEdgeStyle;rounded=0;sketch=1;hachureGap=4;jiggle=2;curveFitting=1;orthogonalLoop=1;jettySize=auto;html=1;entryX=0.5;entryY=0;entryDx=0;entryDy=0;strokeColor=#003366;align=center;verticalAlign=middle;fontFamily=Helvetica;fontSize=12;fontColor=#003366;labelBackgroundColor=none;endArrow=classic;" edge="1" parent="1" source="bbUX7uOw3sF5FcF1nQRy-1" target="bbUX7uOw3sF5FcF1nQRy-5">
          <mxGeometry relative="1" as="geometry" />
        </mxCell>
        <mxCell id="bbUX7uOw3sF5FcF1nQRy-1" value="Run Task" style="rounded=1;whiteSpace=wrap;html=1;sketch=1;hachureGap=4;jiggle=2;curveFitting=1;fillColor=#99CCFF;fontColor=#003366;strokeColor=#003366;" vertex="1" parent="1">
          <mxGeometry x="360" y="-960" width="120" height="40" as="geometry" />
        </mxCell>
        <mxCell id="bbUX7uOw3sF5FcF1nQRy-2" style="edgeStyle=orthogonalEdgeStyle;rounded=0;sketch=1;hachureGap=4;jiggle=2;curveFitting=1;orthogonalLoop=1;jettySize=auto;html=1;exitX=0.5;exitY=1;exitDx=0;exitDy=0;" edge="1" parent="1" source="bbUX7uOw3sF5FcF1nQRy-1" target="bbUX7uOw3sF5FcF1nQRy-1">
          <mxGeometry relative="1" as="geometry" />
        </mxCell>
        <mxCell id="bbUX7uOw3sF5FcF1nQRy-4" style="edgeStyle=orthogonalEdgeStyle;rounded=0;sketch=1;hachureGap=4;jiggle=2;curveFitting=1;orthogonalLoop=1;jettySize=auto;html=1;entryX=0.5;entryY=0;entryDx=0;entryDy=0;fontFamily=Helvetica;fontSize=12;fontColor=#003366;strokeColor=#003366;" edge="1" parent="1" target="bbUX7uOw3sF5FcF1nQRy-1">
          <mxGeometry relative="1" as="geometry">
            <mxPoint x="420" y="-1000" as="sourcePoint" />
          </mxGeometry>
        </mxCell>
        <mxCell id="bbUX7uOw3sF5FcF1nQRy-42" style="edgeStyle=orthogonalEdgeStyle;rounded=0;sketch=1;hachureGap=4;jiggle=2;curveFitting=1;orthogonalLoop=1;jettySize=auto;html=1;entryX=0.5;entryY=0;entryDx=0;entryDy=0;strokeColor=#003366;align=center;verticalAlign=middle;fontFamily=Helvetica;fontSize=12;fontColor=#003366;labelBackgroundColor=none;endArrow=classic;" edge="1" parent="1" source="bbUX7uOw3sF5FcF1nQRy-5" target="bbUX7uOw3sF5FcF1nQRy-6">
          <mxGeometry relative="1" as="geometry" />
        </mxCell>
        <mxCell id="bbUX7uOw3sF5FcF1nQRy-5" value="Build Graph" style="rounded=1;whiteSpace=wrap;html=1;sketch=1;hachureGap=4;jiggle=2;curveFitting=1;fillColor=#99CCFF;fontColor=#003366;strokeColor=#003366;" vertex="1" parent="1">
          <mxGeometry x="360" y="-880" width="120" height="40" as="geometry" />
        </mxCell>
        <mxCell id="bbUX7uOw3sF5FcF1nQRy-44" style="edgeStyle=orthogonalEdgeStyle;rounded=0;sketch=1;hachureGap=4;jiggle=2;curveFitting=1;orthogonalLoop=1;jettySize=auto;html=1;entryX=0.5;entryY=0;entryDx=0;entryDy=0;strokeColor=#003366;align=center;verticalAlign=middle;fontFamily=Helvetica;fontSize=12;fontColor=#003366;labelBackgroundColor=none;endArrow=classic;" edge="1" parent="1" source="bbUX7uOw3sF5FcF1nQRy-6" target="bbUX7uOw3sF5FcF1nQRy-43">
          <mxGeometry relative="1" as="geometry" />
        </mxCell>
        <mxCell id="bbUX7uOw3sF5FcF1nQRy-6" value="Calculate SHA1s" style="rounded=1;whiteSpace=wrap;html=1;sketch=1;hachureGap=4;jiggle=2;curveFitting=1;fillColor=#99CCFF;fontColor=#003366;strokeColor=#003366;" vertex="1" parent="1">
          <mxGeometry x="360" y="-800" width="120" height="40" as="geometry" />
        </mxCell>
        <mxCell id="bbUX7uOw3sF5FcF1nQRy-7" value="Schedule Build" style="rounded=1;whiteSpace=wrap;html=1;sketch=1;hachureGap=4;jiggle=2;curveFitting=1;fillColor=#99CCFF;fontColor=#003366;strokeColor=#003366;" vertex="1" parent="1">
          <mxGeometry x="360" y="-640" width="120" height="40" as="geometry" />
        </mxCell>
        <mxCell id="bbUX7uOw3sF5FcF1nQRy-23" style="edgeStyle=orthogonalEdgeStyle;rounded=0;sketch=1;hachureGap=4;jiggle=2;curveFitting=1;orthogonalLoop=1;jettySize=auto;html=1;entryX=0.5;entryY=0;entryDx=0;entryDy=0;strokeColor=#003366;align=center;verticalAlign=middle;fontFamily=Helvetica;fontSize=12;fontColor=#003366;labelBackgroundColor=none;endArrow=classic;" edge="1" parent="1" source="bbUX7uOw3sF5FcF1nQRy-8" target="bbUX7uOw3sF5FcF1nQRy-9">
          <mxGeometry relative="1" as="geometry" />
        </mxCell>
        <mxCell id="bbUX7uOw3sF5FcF1nQRy-8" value="Schedule Tasks" style="rounded=1;whiteSpace=wrap;html=1;sketch=1;hachureGap=4;jiggle=2;curveFitting=1;fillColor=#99CCFF;fontColor=#003366;strokeColor=#003366;" vertex="1" parent="1">
          <mxGeometry x="360" y="-560" width="120" height="40" as="geometry" />
        </mxCell>
        <mxCell id="bbUX7uOw3sF5FcF1nQRy-11" value="" style="edgeStyle=orthogonalEdgeStyle;rounded=0;sketch=1;hachureGap=4;jiggle=2;curveFitting=1;orthogonalLoop=1;jettySize=auto;html=1;strokeColor=#003366;align=center;verticalAlign=middle;fontFamily=Helvetica;fontSize=12;fontColor=#003366;labelBackgroundColor=default;endArrow=classic;entryX=0.5;entryY=0;entryDx=0;entryDy=0;entryPerimeter=0;" edge="1" parent="1" source="bbUX7uOw3sF5FcF1nQRy-9" target="bbUX7uOw3sF5FcF1nQRy-12">
          <mxGeometry relative="1" as="geometry">
            <mxPoint x="420" y="-400.0000000000001" as="targetPoint" />
          </mxGeometry>
        </mxCell>
        <mxCell id="bbUX7uOw3sF5FcF1nQRy-9" value="Receive Update" style="rounded=1;whiteSpace=wrap;html=1;sketch=1;hachureGap=4;jiggle=2;curveFitting=1;fillColor=#99CCFF;fontColor=#003366;strokeColor=#003366;" vertex="1" parent="1">
          <mxGeometry x="360" y="-480" width="120" height="40" as="geometry" />
        </mxCell>
        <mxCell id="bbUX7uOw3sF5FcF1nQRy-13" style="edgeStyle=orthogonalEdgeStyle;rounded=0;sketch=1;hachureGap=4;jiggle=2;curveFitting=1;orthogonalLoop=1;jettySize=auto;html=1;entryX=0;entryY=0.5;entryDx=0;entryDy=0;strokeColor=#003366;align=center;verticalAlign=middle;fontFamily=Helvetica;fontSize=12;fontColor=#003366;labelBackgroundColor=none;endArrow=classic;" edge="1" parent="1" source="bbUX7uOw3sF5FcF1nQRy-12" target="bbUX7uOw3sF5FcF1nQRy-15">
          <mxGeometry relative="1" as="geometry">
            <Array as="points">
              <mxPoint x="510" y="-380" />
              <mxPoint x="510" y="-380" />
            </Array>
          </mxGeometry>
        </mxCell>
        <mxCell id="bbUX7uOw3sF5FcF1nQRy-14" value="Logline" style="edgeLabel;html=1;align=center;verticalAlign=middle;resizable=0;points=[];rounded=1;sketch=1;hachureGap=4;jiggle=2;curveFitting=1;strokeColor=#003366;fontFamily=Helvetica;fontSize=12;fontColor=#003366;labelBackgroundColor=none;fillColor=#99CCFF;" vertex="1" connectable="0" parent="bbUX7uOw3sF5FcF1nQRy-13">
          <mxGeometry x="-0.51" y="2" relative="1" as="geometry">
            <mxPoint x="20" y="-8" as="offset" />
          </mxGeometry>
        </mxCell>
        <mxCell id="bbUX7uOw3sF5FcF1nQRy-17" style="edgeStyle=orthogonalEdgeStyle;rounded=0;sketch=1;hachureGap=4;jiggle=2;curveFitting=1;orthogonalLoop=1;jettySize=auto;html=1;strokeColor=#003366;align=center;verticalAlign=middle;fontFamily=Helvetica;fontSize=12;fontColor=#003366;labelBackgroundColor=none;endArrow=classic;entryX=1;entryY=0.5;entryDx=0;entryDy=0;entryPerimeter=0;" edge="1" parent="1" source="bbUX7uOw3sF5FcF1nQRy-12" target="bbUX7uOw3sF5FcF1nQRy-20">
          <mxGeometry relative="1" as="geometry">
            <mxPoint x="320" y="-380" as="targetPoint" />
          </mxGeometry>
        </mxCell>
        <mxCell id="bbUX7uOw3sF5FcF1nQRy-19" value="Task Passed" style="edgeLabel;html=1;align=center;verticalAlign=middle;resizable=0;points=[];rounded=1;sketch=1;hachureGap=4;jiggle=2;curveFitting=1;strokeColor=#003366;fontFamily=Helvetica;fontSize=12;fontColor=#003366;labelBackgroundColor=none;fillColor=#99CCFF;gradientColor=none;" vertex="1" connectable="0" parent="bbUX7uOw3sF5FcF1nQRy-17">
          <mxGeometry x="-0.0698" relative="1" as="geometry">
            <mxPoint x="-2" y="-10" as="offset" />
          </mxGeometry>
        </mxCell>
        <mxCell id="bbUX7uOw3sF5FcF1nQRy-25" style="edgeStyle=orthogonalEdgeStyle;rounded=0;sketch=1;hachureGap=4;jiggle=2;curveFitting=1;orthogonalLoop=1;jettySize=auto;html=1;entryX=0.5;entryY=0;entryDx=0;entryDy=0;strokeColor=#003366;align=center;verticalAlign=middle;fontFamily=Helvetica;fontSize=12;fontColor=#003366;labelBackgroundColor=none;endArrow=classic;" edge="1" parent="1" source="bbUX7uOw3sF5FcF1nQRy-12" target="bbUX7uOw3sF5FcF1nQRy-24">
          <mxGeometry relative="1" as="geometry" />
        </mxCell>
        <mxCell id="bbUX7uOw3sF5FcF1nQRy-12" value="" style="strokeWidth=2;html=1;shape=mxgraph.flowchart.decision;whiteSpace=wrap;rounded=1;sketch=1;hachureGap=4;jiggle=2;curveFitting=1;strokeColor=#003366;align=center;verticalAlign=middle;fontFamily=Helvetica;fontSize=12;fontColor=#003366;labelBackgroundColor=default;fillColor=#99CCFF;" vertex="1" parent="1">
          <mxGeometry x="400" y="-400" width="40" height="40" as="geometry" />
        </mxCell>
        <mxCell id="bbUX7uOw3sF5FcF1nQRy-16" style="edgeStyle=orthogonalEdgeStyle;rounded=0;sketch=1;hachureGap=4;jiggle=2;curveFitting=1;orthogonalLoop=1;jettySize=auto;html=1;entryX=1;entryY=0.5;entryDx=0;entryDy=0;strokeColor=#003366;align=center;verticalAlign=middle;fontFamily=Helvetica;fontSize=12;fontColor=#003366;labelBackgroundColor=none;endArrow=classic;" edge="1" parent="1" source="bbUX7uOw3sF5FcF1nQRy-15" target="bbUX7uOw3sF5FcF1nQRy-9">
          <mxGeometry relative="1" as="geometry">
            <Array as="points">
              <mxPoint x="580" y="-460" />
            </Array>
          </mxGeometry>
        </mxCell>
        <mxCell id="bbUX7uOw3sF5FcF1nQRy-15" value="Write Log" style="rounded=1;whiteSpace=wrap;html=1;sketch=1;hachureGap=4;jiggle=2;curveFitting=1;fillColor=#99CCFF;fontColor=#003366;strokeColor=#003366;" vertex="1" parent="1">
          <mxGeometry x="520" y="-400" width="120" height="40" as="geometry" />
        </mxCell>
        <mxCell id="bbUX7uOw3sF5FcF1nQRy-35" style="edgeStyle=orthogonalEdgeStyle;rounded=0;sketch=1;hachureGap=4;jiggle=2;curveFitting=1;orthogonalLoop=1;jettySize=auto;html=1;entryX=0.5;entryY=0;entryDx=0;entryDy=0;strokeColor=#003366;align=center;verticalAlign=middle;fontFamily=Helvetica;fontSize=12;fontColor=#003366;labelBackgroundColor=none;endArrow=classic;" edge="1" parent="1" source="bbUX7uOw3sF5FcF1nQRy-20" target="bbUX7uOw3sF5FcF1nQRy-34">
          <mxGeometry relative="1" as="geometry" />
        </mxCell>
        <mxCell id="bbUX7uOw3sF5FcF1nQRy-38" value="Yes" style="edgeLabel;html=1;align=center;verticalAlign=middle;resizable=0;points=[];rounded=1;sketch=1;hachureGap=4;jiggle=2;curveFitting=1;strokeColor=#003366;fontFamily=Helvetica;fontSize=12;fontColor=#003366;labelBackgroundColor=none;fillColor=#99CCFF;gradientColor=none;rotation=-90;" vertex="1" connectable="0" parent="bbUX7uOw3sF5FcF1nQRy-35">
          <mxGeometry x="-0.5947" y="-2" relative="1" as="geometry">
            <mxPoint x="-8" as="offset" />
          </mxGeometry>
        </mxCell>
        <mxCell id="bbUX7uOw3sF5FcF1nQRy-20" value="" style="strokeWidth=2;html=1;shape=mxgraph.flowchart.decision;whiteSpace=wrap;rounded=1;sketch=1;hachureGap=4;jiggle=2;curveFitting=1;strokeColor=#003366;align=center;verticalAlign=middle;fontFamily=Helvetica;fontSize=12;fontColor=#003366;labelBackgroundColor=default;fillColor=#99CCFF;" vertex="1" parent="1">
          <mxGeometry x="240" y="-400" width="40" height="40" as="geometry" />
        </mxCell>
        <mxCell id="bbUX7uOw3sF5FcF1nQRy-21" style="edgeStyle=orthogonalEdgeStyle;rounded=0;sketch=1;hachureGap=4;jiggle=2;curveFitting=1;orthogonalLoop=1;jettySize=auto;html=1;entryX=-0.016;entryY=0.462;entryDx=0;entryDy=0;entryPerimeter=0;strokeColor=#003366;align=center;verticalAlign=middle;fontFamily=Helvetica;fontSize=12;fontColor=#003366;labelBackgroundColor=none;endArrow=classic;" edge="1" parent="1" source="bbUX7uOw3sF5FcF1nQRy-20" target="bbUX7uOw3sF5FcF1nQRy-8">
          <mxGeometry relative="1" as="geometry">
            <Array as="points">
              <mxPoint x="260" y="-542" />
            </Array>
          </mxGeometry>
        </mxCell>
        <mxCell id="bbUX7uOw3sF5FcF1nQRy-39" value="No" style="edgeLabel;html=1;align=center;verticalAlign=middle;resizable=0;points=[];rounded=1;sketch=1;hachureGap=4;jiggle=2;curveFitting=1;strokeColor=#003366;fontFamily=Helvetica;fontSize=12;fontColor=#003366;labelBackgroundColor=none;fillColor=#99CCFF;gradientColor=none;rotation=-90;" vertex="1" connectable="0" parent="bbUX7uOw3sF5FcF1nQRy-21">
          <mxGeometry x="-0.7964" y="1" relative="1" as="geometry">
            <mxPoint x="-9" as="offset" />
          </mxGeometry>
        </mxCell>
        <mxCell id="bbUX7uOw3sF5FcF1nQRy-40" value="Schedule&lt;br&gt;Dependents" style="edgeLabel;html=1;align=center;verticalAlign=middle;resizable=0;points=[];rounded=1;sketch=1;hachureGap=4;jiggle=2;curveFitting=1;strokeColor=#003366;fontFamily=Helvetica;fontSize=12;fontColor=#003366;labelBackgroundColor=none;fillColor=#99CCFF;gradientColor=none;" vertex="1" connectable="0" parent="bbUX7uOw3sF5FcF1nQRy-21">
          <mxGeometry x="0.6189" y="1" relative="1" as="geometry">
            <mxPoint as="offset" />
          </mxGeometry>
        </mxCell>
        <mxCell id="bbUX7uOw3sF5FcF1nQRy-28" style="edgeStyle=orthogonalEdgeStyle;rounded=0;sketch=1;hachureGap=4;jiggle=2;curveFitting=1;orthogonalLoop=1;jettySize=auto;html=1;entryX=0.5;entryY=0;entryDx=0;entryDy=0;strokeColor=#003366;align=center;verticalAlign=middle;fontFamily=Helvetica;fontSize=12;fontColor=#003366;labelBackgroundColor=none;endArrow=classic;" edge="1" parent="1" source="bbUX7uOw3sF5FcF1nQRy-24" target="bbUX7uOw3sF5FcF1nQRy-27">
          <mxGeometry relative="1" as="geometry" />
        </mxCell>
        <mxCell id="bbUX7uOw3sF5FcF1nQRy-24" value="Cancel &lt;br&gt;Remaining Tasks" style="rounded=1;whiteSpace=wrap;html=1;sketch=1;hachureGap=4;jiggle=2;curveFitting=1;fillColor=#99CCFF;fontColor=#003366;strokeColor=#003366;" vertex="1" parent="1">
          <mxGeometry x="360" y="-320" width="120" height="40" as="geometry" />
        </mxCell>
        <mxCell id="bbUX7uOw3sF5FcF1nQRy-26" value="Task Failed" style="edgeLabel;html=1;align=center;verticalAlign=middle;resizable=0;points=[];rounded=1;sketch=1;hachureGap=4;jiggle=2;curveFitting=1;strokeColor=#003366;fontFamily=Helvetica;fontSize=12;fontColor=#003366;labelBackgroundColor=none;fillColor=#99CCFF;gradientColor=none;" vertex="1" connectable="0" parent="1">
          <mxGeometry x="455.9979310344827" y="-344" as="geometry" />
        </mxCell>
        <mxCell id="bbUX7uOw3sF5FcF1nQRy-27" value="Wait for Completion" style="rounded=1;whiteSpace=wrap;html=1;sketch=1;hachureGap=4;jiggle=2;curveFitting=1;fillColor=#99CCFF;fontColor=#003366;strokeColor=#003366;" vertex="1" parent="1">
          <mxGeometry x="360" y="-240" width="120" height="40" as="geometry" />
        </mxCell>
        <mxCell id="bbUX7uOw3sF5FcF1nQRy-29" value="" style="strokeWidth=2;html=1;shape=mxgraph.flowchart.start_2;whiteSpace=wrap;rounded=1;sketch=1;hachureGap=4;jiggle=2;curveFitting=1;strokeColor=#003366;align=center;verticalAlign=middle;fontFamily=Helvetica;fontSize=12;fontColor=#003366;labelBackgroundColor=none;fillColor=#99CCFF;gradientColor=none;" vertex="1" parent="1">
          <mxGeometry x="400" y="-160" width="40" height="40" as="geometry" />
        </mxCell>
        <mxCell id="bbUX7uOw3sF5FcF1nQRy-30" value="" style="strokeWidth=2;html=1;shape=mxgraph.flowchart.start_2;whiteSpace=wrap;rounded=1;sketch=1;hachureGap=4;jiggle=2;curveFitting=1;strokeColor=#003366;align=center;verticalAlign=middle;fontFamily=Helvetica;fontSize=12;fontColor=#003366;labelBackgroundColor=none;fillColor=#99CCFF;gradientColor=none;" vertex="1" parent="1">
          <mxGeometry x="400" y="-1040" width="40" height="40" as="geometry" />
        </mxCell>
        <mxCell id="bbUX7uOw3sF5FcF1nQRy-31" style="edgeStyle=orthogonalEdgeStyle;rounded=0;sketch=1;hachureGap=4;jiggle=2;curveFitting=1;orthogonalLoop=1;jettySize=auto;html=1;entryX=0.5;entryY=0;entryDx=0;entryDy=0;entryPerimeter=0;strokeColor=#003366;align=center;verticalAlign=middle;fontFamily=Helvetica;fontSize=12;fontColor=#003366;labelBackgroundColor=none;endArrow=classic;" edge="1" parent="1" source="bbUX7uOw3sF5FcF1nQRy-27" target="bbUX7uOw3sF5FcF1nQRy-29">
          <mxGeometry relative="1" as="geometry" />
        </mxCell>
        <mxCell id="bbUX7uOw3sF5FcF1nQRy-34" value="Download Artifacts" style="rounded=1;whiteSpace=wrap;html=1;sketch=1;hachureGap=4;jiggle=2;curveFitting=1;fillColor=#99CCFF;fontColor=#003366;strokeColor=#003366;" vertex="1" parent="1">
          <mxGeometry x="200" y="-240" width="120" height="40" as="geometry" />
        </mxCell>
        <mxCell id="bbUX7uOw3sF5FcF1nQRy-36" style="edgeStyle=orthogonalEdgeStyle;rounded=0;sketch=1;hachureGap=4;jiggle=2;curveFitting=1;orthogonalLoop=1;jettySize=auto;html=1;entryX=0;entryY=0.5;entryDx=0;entryDy=0;entryPerimeter=0;strokeColor=#003366;align=center;verticalAlign=middle;fontFamily=Helvetica;fontSize=12;fontColor=#003366;labelBackgroundColor=none;endArrow=classic;" edge="1" parent="1" source="bbUX7uOw3sF5FcF1nQRy-34" target="bbUX7uOw3sF5FcF1nQRy-29">
          <mxGeometry relative="1" as="geometry">
            <Array as="points">
              <mxPoint x="260" y="-140" />
            </Array>
          </mxGeometry>
        </mxCell>
        <mxCell id="bbUX7uOw3sF5FcF1nQRy-37" value="Last?" style="text;html=1;align=center;verticalAlign=middle;resizable=0;points=[];autosize=1;strokeColor=none;fillColor=none;fontFamily=Helvetica;fontSize=12;fontColor=#003366;labelBackgroundColor=none;" vertex="1" parent="1">
          <mxGeometry x="185" y="-395" width="50" height="30" as="geometry" />
        </mxCell>
        <mxCell id="bbUX7uOw3sF5FcF1nQRy-45" style="edgeStyle=orthogonalEdgeStyle;rounded=0;sketch=1;hachureGap=4;jiggle=2;curveFitting=1;orthogonalLoop=1;jettySize=auto;html=1;entryX=0.5;entryY=0;entryDx=0;entryDy=0;strokeColor=#003366;align=center;verticalAlign=middle;fontFamily=Helvetica;fontSize=12;fontColor=#003366;labelBackgroundColor=none;endArrow=classic;" edge="1" parent="1" source="bbUX7uOw3sF5FcF1nQRy-43" target="bbUX7uOw3sF5FcF1nQRy-7">
          <mxGeometry relative="1" as="geometry" />
        </mxCell>
        <mxCell id="bbUX7uOw3sF5FcF1nQRy-43" value="Connect to Scheduler" style="rounded=1;whiteSpace=wrap;html=1;sketch=1;hachureGap=4;jiggle=2;curveFitting=1;fillColor=#99CCFF;fontColor=#003366;strokeColor=#003366;" vertex="1" parent="1">
          <mxGeometry x="360" y="-720" width="120" height="40" as="geometry" />
        </mxCell>
        <mxCell id="bbUX7uOw3sF5FcF1nQRy-46" style="edgeStyle=orthogonalEdgeStyle;rounded=0;sketch=1;hachureGap=4;jiggle=2;curveFitting=1;orthogonalLoop=1;jettySize=auto;html=1;entryX=0.5;entryY=0;entryDx=0;entryDy=0;strokeColor=#003366;align=center;verticalAlign=middle;fontFamily=Helvetica;fontSize=12;fontColor=#003366;labelBackgroundColor=none;endArrow=classic;" edge="1" parent="1" source="bbUX7uOw3sF5FcF1nQRy-7" target="bbUX7uOw3sF5FcF1nQRy-8">
          <mxGeometry relative="1" as="geometry" />
        </mxCell>
      </root>
    </mxGraphModel>
  </diagram>
</mxfile>
